<svg id="Inhalt" xmlns="http://www.w3.org/2000/svg" viewBox="0 0 80 80"><defs><style>.cls-1{fill:none;stroke:#4794da;stroke-linecap:round;stroke-linejoin:round;stroke-width:2px;}</style></defs><title>icons_time-program_normal</title><circle class="cls-1" cx="40" cy="40" r="21.5"/><line class="cls-1" x1="40" y1="29.24" x2="40" y2="40"/><line class="cls-1" x1="45.76" y1="40" x2="40" y2="40"/><line class="cls-1" x1="40" y1="22.5" x2="40" y2="22.77"/><line class="cls-1" x1="48.75" y1="24.84" x2="48.62" y2="25.07"/><line class="cls-1" x1="55.16" y1="31.25" x2="54.93" y2="31.38"/><line class="cls-1" x1="57.5" y1="40" x2="57.24" y2="40"/><line class="cls-1" x1="55.16" y1="48.75" x2="54.93" y2="48.62"/><line class="cls-1" x1="48.75" y1="55.16" x2="48.62" y2="54.93"/><line class="cls-1" x1="40" y1="57.5" x2="40" y2="57.24"/><line class="cls-1" x1="31.25" y1="55.16" x2="31.38" y2="54.93"/><line class="cls-1" x1="24.84" y1="48.75" x2="25.07" y2="48.62"/><line class="cls-1" x1="22.5" y1="40" x2="22.76" y2="40"/><line class="cls-1" x1="34.43" y1="19.23" x2="36.31" y2="26.25"/><line class="cls-1" x1="29.25" y1="21.38" x2="32.88" y2="27.67"/><line class="cls-1" x1="24.79" y1="24.8" x2="29.93" y2="29.94"/><line class="cls-1" x1="21.38" y1="29.25" x2="27.67" y2="32.89"/><line class="cls-1" x1="19.23" y1="34.44" x2="26.25" y2="36.32"/></svg>