<svg id="Inhalt" xmlns="http://www.w3.org/2000/svg" viewBox="0 0 80 80"><defs><style>.cls-1{fill:none;stroke:#4794da;stroke-linecap:round;stroke-linejoin:round;stroke-width:2px;}</style></defs><title>icons_push-button_normal</title><polyline class="cls-1" points="18.72 54.71 22.2 47.85 37.37 54.98 34.48 61.37"/><line class="cls-1" x1="27.7" y1="58.35" x2="30.55" y2="59.76"/><path class="cls-1" d="M24.59,48.92,26,46.57,36.1,30.3,50.76,27a1.62,1.62,0,0,1,2,1.11c.55,1.5-1.08,2.17-1.08,2.17L41.28,35l4.79.38,1.46,7.1-4.19,4.35-7.17,3-2.52,3.49"/><path class="cls-1" d="M48.05,24a5.51,5.51,0,1,1,3.13,10.2"/><polyline class="cls-1" points="50.92 38.03 61.3 38.03 61.3 18.41 43.18 18.41 43.18 23.08"/></svg>